<svg xmlns="http://www.w3.org/2000/svg" width="1100" height="420" fill="none" viewBox="0 0 1100 420"><defs><marker id="arrowGray" markerHeight="8" markerWidth="8" orient="auto-start-reverse" refX="9" refY="5" viewBox="0 0 10 10"><path fill="#6b6560" d="m0 0 10 5-10 5z"/></marker><marker id="arrowGreen" markerHeight="8" markerWidth="8" orient="auto-start-reverse" refX="9" refY="5" viewBox="0 0 10 10"><path fill="#7aab6e" d="m0 0 10 5-10 5z"/></marker><marker id="arrowAmber" markerHeight="8" markerWidth="8" orient="auto-start-reverse" refX="9" refY="5" viewBox="0 0 10 10"><path fill="#d4a843" d="m0 0 10 5-10 5z"/></marker><marker id="arrowPeach" markerHeight="8" markerWidth="8" orient="auto-start-reverse" refX="9" refY="5" viewBox="0 0 10 10"><path fill="#c4896a" d="m0 0 10 5-10 5z"/></marker><filter id="shadow" width="104%" height="104%" x="-2%" y="-2%"><feDropShadow dx="0" dy="1" flood-opacity=".08" stdDeviation="2"/></filter></defs><rect width="1100" height="420" fill="#1a1a1a" rx="16"/><rect width="1068" height="388" x="16" y="16" fill="#f7f5f2" rx="12"/><rect width="660" height="190" x="270" y="50" stroke="#c4c0ba" stroke-dasharray="8 4" stroke-width="1.5" rx="12"/><text x="600" y="74" fill="#9b9690" font-family="-apple-system, BlinkMacSystemFont, 'Segoe UI', sans-serif" font-size="14" font-style="italic" text-anchor="middle">agentic loop</text><rect width="160" height="56" x="56" y="112" fill="#e8e5e0" filter="url(#shadow)" rx="8"/><text x="136" y="146" fill="#3d3d3d" font-family="-apple-system, BlinkMacSystemFont, 'Segoe UI', sans-serif" font-size="15" font-weight="500" text-anchor="middle">Your prompt</text><path stroke="#6b6560" stroke-width="2" marker-end="url(#arrowGray)" d="M216 140h80"/><rect width="180" height="56" x="300" y="112" fill="#d4e8d0" filter="url(#shadow)" rx="8"/><text x="390" y="146" fill="#3d3d3d" font-family="-apple-system, BlinkMacSystemFont, 'Segoe UI', sans-serif" font-size="15" font-weight="500" text-anchor="middle">Gather context</text><path stroke="#6b6560" stroke-width="2" marker-end="url(#arrowGray)" d="M480 140h50"/><rect width="160" height="56" x="534" y="112" fill="#d4e8d0" filter="url(#shadow)" rx="8"/><text x="614" y="146" fill="#3d3d3d" font-family="-apple-system, BlinkMacSystemFont, 'Segoe UI', sans-serif" font-size="15" font-weight="500" text-anchor="middle">Take action</text><path stroke="#6b6560" stroke-width="2" marker-end="url(#arrowGray)" d="M694 140h50"/><rect width="170" height="56" x="748" y="112" fill="#d4e8d0" filter="url(#shadow)" rx="8"/><text x="833" y="146" fill="#3d3d3d" font-family="-apple-system, BlinkMacSystemFont, 'Segoe UI', sans-serif" font-size="15" font-weight="500" text-anchor="middle">Verify results</text><rect width="72" height="44" x="980" y="118" fill="#e8e5e0" filter="url(#shadow)" rx="8"/><text x="1016" y="146" fill="#3d3d3d" font-family="-apple-system, BlinkMacSystemFont, 'Segoe UI', sans-serif" font-size="15" font-weight="500" text-anchor="middle">Done</text><path stroke="#6b6560" stroke-width="2" marker-end="url(#arrowGray)" d="M918 140h58"/><path stroke="#7aab6e" stroke-width="2" marker-end="url(#arrowGreen)" d="M800 168v42q0 10-10 10H420q-10 0-10-10v-42"/><rect width="220" height="76" x="56" y="290" fill="#fde8e0" stroke="#c4896a" stroke-width="1.5" filter="url(#shadow)" rx="8"/><text x="166" y="322" fill="#3d3d3d" font-family="-apple-system, BlinkMacSystemFont, 'Segoe UI', sans-serif" font-size="15" font-weight="600" text-anchor="middle">You: interrupt, steer,</text><text x="166" y="346" fill="#3d3d3d" font-family="-apple-system, BlinkMacSystemFont, 'Segoe UI', sans-serif" font-size="15" font-weight="600" text-anchor="middle">or add context</text><path stroke="#c4896a" stroke-dasharray="6 3" stroke-width="2" marker-end="url(#arrowPeach)" d="M166 290v-30q0-10 10-10h204q10 0 10-10v-72"/><rect width="360" height="76" x="560" y="290" fill="#fff8e6" stroke="#d4a843" stroke-width="1.5" filter="url(#shadow)" rx="8"/><text x="740" y="322" fill="#3d3d3d" font-family="-apple-system, BlinkMacSystemFont, 'Segoe UI', sans-serif" font-size="15" font-weight="600" text-anchor="middle">cc-context-awareness</text><text x="740" y="346" fill="#8a7a40" font-family="-apple-system, BlinkMacSystemFont, 'Segoe UI', sans-serif" font-size="12" text-anchor="middle">deterministic steering with real context data</text><path stroke="#d4a843" stroke-dasharray="6 3" stroke-width="2" marker-end="url(#arrowAmber)" d="M640 290v-30q0-10-10-10H400q-10 0-10-10v-72"/></svg>